<svg width="1100" height="170" viewBox="0 0 1100 170" fill="none" xmlns="http://www.w3.org/2000/svg" role="img" aria-labelledby="title desc">
  <title id="title">Workflow line</title>
  <desc id="desc">A visual workflow from problem to maintained output.</desc>
  <rect width="1100" height="170" fill="#ffffff"/>
  <path d="M150 86H950" stroke="#d6d3d1" stroke-width="3" stroke-linecap="round" stroke-dasharray="8 10"/>
  <g transform="translate(70 42)"><circle cx="44" cy="44" r="42" fill="#fff7ed" stroke="#fed7aa"/><path d="M31 43h26M44 30v26" stroke="#b45309" stroke-width="5" stroke-linecap="round"/><text x="44" y="120" text-anchor="middle" fill="#292524" font-family="ui-sans-serif, -apple-system, BlinkMacSystemFont, 'Noto Sans SC', sans-serif" font-size="15" font-weight="700">拆解问题</text></g>
  <g transform="translate(300 42)"><circle cx="44" cy="44" r="42" fill="#f0fdf4" stroke="#bbf7d0"/><path d="M28 48c12-24 31-24 43 0M44 28l29 48" stroke="#059669" stroke-width="5" stroke-linecap="round" stroke-linejoin="round"/><text x="44" y="120" text-anchor="middle" fill="#292524" font-family="ui-sans-serif, -apple-system, BlinkMacSystemFont, 'Noto Sans SC', sans-serif" font-size="15" font-weight="700">检索资料</text></g>
  <g transform="translate(530 42)"><circle cx="44" cy="44" r="42" fill="#fafaf9" stroke="#d6d3d1"/><path d="M27 34h34M27 45h26M27 56h38" stroke="#57534e" stroke-width="5" stroke-linecap="round"/><text x="44" y="120" text-anchor="middle" fill="#292524" font-family="ui-sans-serif, -apple-system, BlinkMacSystemFont, 'Noto Sans SC', sans-serif" font-size="15" font-weight="700">组织上下文</text></g>
  <g transform="translate(760 42)"><circle cx="44" cy="44" r="42" fill="#ecfdf5" stroke="#a7f3d0"/><path d="M22 44h44M44 22v44M29 30c16 10 30 10 46 0M29 58c16-10 30-10 46 0" stroke="#047857" stroke-width="4" stroke-linecap="round"/><text x="44" y="120" text-anchor="middle" fill="#292524" font-family="ui-sans-serif, -apple-system, BlinkMacSystemFont, 'Noto Sans SC', sans-serif" font-size="15" font-weight="700">可视化表达</text></g>
  <g transform="translate(990 42)"><circle cx="44" cy="44" r="42" fill="#fff7ed" stroke="#fed7aa"/><path d="M28 47l12 12 24-31" stroke="#b45309" stroke-width="6" stroke-linecap="round" stroke-linejoin="round"/><text x="44" y="120" text-anchor="middle" fill="#292524" font-family="ui-sans-serif, -apple-system, BlinkMacSystemFont, 'Noto Sans SC', sans-serif" font-size="15" font-weight="700">沉淀维护</text></g>
</svg>
